<svg width="24" height="24" fill="none" xmlns="http://www.w3.org/2000/svg"><path d="M20 7.324v9.352A3.324 3.324 0 0116.676 20H7.324A3.324 3.324 0 014 16.676V7.324A3.324 3.324 0 017.324 4h9.352A3.324 3.324 0 0120 7.324zm-9.695 9.21a4.852 4.852 0 006.228-6.229 4.59 4.59 0 00-2.838-2.838 4.853 4.853 0 00-6.228 6.228 4.59 4.59 0 002.838 2.838zM6.448 7.161a.625.625 0 001.129.253.626.626 0 00-.353-.955.626.626 0 00-.776.702z" fill="#fff"/><path d="M12 8.571A3.432 3.432 0 0115.429 12 3.432 3.432 0 0112 15.429 3.432 3.432 0 018.571 12 3.432 3.432 0 0112 8.571z" fill="#fff"/></svg>