<svg width="16" height="16" fill="none" xmlns="http://www.w3.org/2000/svg"><path fill-rule="evenodd" clip-rule="evenodd" d="M2 0a2 2 0 00-2 2v12a2 2 0 002 2h12a2 2 0 002-2V2a2 2 0 00-2-2H2zm11.53 5.03a.75.75 0 00-1.06-1.06L6.5 9.94 4.03 7.47a.75.75 0 00-1.06 1.06l3 3a.75.75 0 001.06 0l6.5-6.5z" fill="url(#paint0_linear)"/><defs><linearGradient id="paint0_linear" x1="8.038" y1="0" x2="3.787" y2="14.868" gradientUnits="userSpaceOnUse"><stop offset=".052" stop-color="#82A5E6"/><stop offset="1" stop-color="#3A65A0"/></linearGradient></defs></svg>