<svg width="28" height="28" fill="none" xmlns="http://www.w3.org/2000/svg"><g clip-path="url(#clip0)" fill="#C5C7CD"><path d="M27.014 16.209c.835-7.032-.401-11.471-2.632-13.479l.001-.001C20.783-.7 8.624-1.207 4.317 2.883c-1.935 2-2.616 4.937-2.69 8.572-.075 3.637-.164 10.45 6.184 12.297h.006l-.006 2.822s-.043 1.144.687 1.373c.835.271 1.213-.26 3.812-3.363 4.344.377 7.68-.486 8.06-.613.877-.294 5.841-.95 6.644-7.762zm-14.276 6.39s-2.75 3.428-3.605 4.318c-.28.29-.587.263-.582-.311 0-.377.02-4.686.02-4.686-5.381-1.542-5.064-7.343-5.006-10.377.059-3.036.614-5.522 2.252-7.196C9.596.804 20.256 1.596 22.972 4.149c3.32 2.943 2.138 11.26 2.145 11.543-.682 5.686-4.705 6.046-5.445 6.293-.316.105-3.25.86-6.934.613z"/><path d="M14.259 5.013c-.45 0-.45.7 0 .706 3.485.027 6.355 2.456 6.386 6.911 0 .47.689.465.683-.006h-.001c-.038-4.8-3.171-7.584-7.068-7.61z"/><path d="M18.843 11.892c-.01.464.677.486.682.016.058-2.647-1.575-4.827-4.642-5.057-.449-.033-.496.673-.048.706 2.66.201 4.061 2.017 4.008 4.335zm-.735 3.011c-.576-.334-1.163-.126-1.406.202l-.508.657c-.257.333-.74.289-.74.289-3.516-.93-4.456-4.61-4.456-4.61s-.043-.498.279-.765l.635-.525c.317-.252.518-.859.194-1.455-.863-1.56-1.443-2.097-1.738-2.51-.31-.389-.777-.476-1.262-.214h-.01c-1.01.59-2.115 1.695-1.761 2.833.603 1.2 1.711 5.022 5.244 7.911 1.66 1.366 4.287 2.766 5.403 3.09l.01.016c1.1.366 2.168-.782 2.738-1.822v-.008c.254-.503.17-.979-.2-1.29-.656-.64-1.645-1.345-2.422-1.799z"/><path d="M15.364 9.455c1.121.065 1.665.65 1.723 1.854.021.47.704.437.683-.033-.075-1.57-.894-2.446-2.369-2.527-.449-.027-.49.679-.037.706z"/></g><defs><clipPath id="clip0"><path fill="#fff" d="M0 0h28v28H0z"/></clipPath></defs></svg>