<svg width="52" height="52" fill="none" xmlns="http://www.w3.org/2000/svg"><path d="M42.017 29.949c1.029-8.654-.494-14.118-3.239-16.589l.002-.001c-4.432-4.22-19.397-4.845-24.698.19-2.38 2.462-3.22 6.076-3.311 10.55-.092 4.476-.201 12.86 7.612 15.134h.007l-.007 3.474s-.054 1.407.845 1.69c1.028.333 1.494-.32 4.691-4.14 5.348.464 9.454-.599 9.921-.754 1.08-.361 7.19-1.17 8.177-9.554zm-17.57 7.864s-3.385 4.22-4.438 5.316c-.344.356-.722.323-.716-.383 0-.464.026-5.767.026-5.767-6.624-1.898-6.233-9.037-6.162-12.772.072-3.736.756-6.796 2.772-8.857 4.65-4.36 17.77-3.386 21.113-.244 4.087 3.623 2.632 13.858 2.64 14.207-.84 6.998-5.79 7.442-6.7 7.745-.39.13-4.001 1.058-8.536.755z" fill="#fff"/><path d="M26.319 16.17c-.553 0-.553.862 0 .869 4.289.033 7.821 3.022 7.86 8.506 0 .579.847.571.84-.007h-.002c-.046-5.909-3.902-9.335-8.698-9.368z" fill="#fff"/><path d="M31.96 24.636c-.012.572.833.599.84.02.07-3.258-1.938-5.941-5.713-6.224-.553-.04-.61.828-.059.868 3.274.249 4.998 2.483 4.932 5.336zm-.904 3.706c-.71-.41-1.432-.155-1.73.248l-.625.809c-.317.41-.91.356-.91.356-4.328-1.144-5.486-5.673-5.486-5.673s-.053-.613.344-.942l.78-.646c.391-.31.638-1.057.24-1.79-1.062-1.92-1.776-2.583-2.139-3.09-.382-.48-.956-.587-1.554-.264h-.012c-1.243.727-2.602 2.087-2.167 3.487.742 1.476 2.106 6.181 6.454 9.736 2.043 1.682 5.277 3.405 6.65 3.803l.013.02c1.352.45 2.668-.962 3.37-2.242v-.01c.311-.618.208-1.204-.247-1.588-.807-.787-2.025-1.655-2.981-2.214z" fill="#fff"/><path d="M27.679 21.637c1.38.08 2.049.8 2.12 2.281.026.579.866.539.84-.04-.091-1.933-1.1-3.01-2.915-3.11-.552-.033-.604.835-.045.869z" fill="#fff"/></svg>