<svg width="24" height="24" viewBox="0 0 24 24" fill="none" xmlns="http://www.w3.org/2000/svg">
<path d="M20 7.32441V16.6756C20 18.5116 18.5116 20 16.6756 20H7.32441C5.48838 20 4 18.5116 4 16.6756V7.32441C4 5.48838 5.48838 4 7.32441 4H16.6756C18.5116 4 20 5.48838 20 7.32441ZM10.3052 16.5334C14.2516 17.895 17.895 14.2516 16.5334 10.3052C16.0746 8.9751 15.025 7.92539 13.6949 7.4666C9.74844 6.10498 6.10498 9.74844 7.4666 13.6949C7.92539 15.025 8.975 16.0746 10.3052 16.5334ZM6.44814 7.16191C6.51094 7.49072 6.78301 7.68203 7.06445 7.68203C7.23574 7.68203 7.41035 7.61133 7.54404 7.45791C7.55586 7.44434 7.56689 7.42979 7.57666 7.41465C7.71465 7.20371 7.71895 6.95312 7.60166 6.7499C7.51865 6.60605 7.38467 6.50332 7.22422 6.46035C7.06396 6.41719 6.89639 6.43936 6.75273 6.52246C6.54941 6.63965 6.42793 6.85889 6.4418 7.11025C6.44277 7.12744 6.44482 7.14492 6.44814 7.16191Z" fill="white"/>
<path d="M12 8.57141C13.8906 8.57141 15.4286 10.1094 15.4286 12C15.4286 13.8906 13.8906 15.4286 12 15.4286C10.1094 15.4286 8.57143 13.8906 8.57143 12C8.57143 10.1094 10.1094 8.57141 12 8.57141Z" fill="white"/>
</svg>
