<svg width="24" height="24" viewBox="0 0 24 24" fill="none" xmlns="http://www.w3.org/2000/svg">
<path fill-rule="evenodd" clip-rule="evenodd" d="M12 22.5001C17.799 22.5001 22.5 17.799 22.5 12.0001C22.5 6.20107 17.799 1.50006 12 1.50006C6.20101 1.50006 1.5 6.20107 1.5 12.0001C1.5 17.799 6.20101 22.5001 12 22.5001ZM12 23.6667C18.4433 23.6667 23.6667 18.4434 23.6667 12.0001C23.6667 5.55673 18.4433 0.333389 12 0.333389C5.55668 0.333389 0.333336 5.55673 0.333336 12.0001C0.333336 18.4434 5.55668 23.6667 12 23.6667Z" fill="#3F3F3F"/>
<path fill-rule="evenodd" clip-rule="evenodd" d="M17.8333 13.1667H6.16667V10.8334H17.8333V13.1667Z" fill="#3F3F3F"/>
</svg>
