<svg width="24" height="24" viewBox="0 0 24 24" fill="none" xmlns="http://www.w3.org/2000/svg">
<path fill-rule="evenodd" clip-rule="evenodd" d="M12 22.5C17.799 22.5 22.5 17.799 22.5 12C22.5 6.20101 17.799 1.49999 12 1.49999C6.20101 1.49999 1.49999 6.20101 1.49999 12C1.49999 17.799 6.20101 22.5 12 22.5ZM12 23.6667C18.4433 23.6667 23.6667 18.4433 23.6667 12C23.6667 5.55667 18.4433 0.333328 12 0.333328C5.55667 0.333328 0.333328 5.55667 0.333328 12C0.333328 18.4433 5.55667 23.6667 12 23.6667Z" fill="#3F3F3F"/>
<path fill-rule="evenodd" clip-rule="evenodd" d="M17.8333 13.1667H6.16667V10.8333H17.8333V13.1667Z" fill="#3F3F3F"/>
<path fill-rule="evenodd" clip-rule="evenodd" d="M13.1667 6.16666V17.8333H10.8333V6.16666H13.1667Z" fill="#3F3F3F"/>
</svg>
