<svg width="16" height="16" viewBox="0 0 16 16" fill="none" xmlns="http://www.w3.org/2000/svg">
<path fill-rule="evenodd" clip-rule="evenodd" d="M2 0C0.895431 0 0 0.895431 0 2V14C0 15.1046 0.895431 16 2 16H14C15.1046 16 16 15.1046 16 14V2C16 0.895431 15.1046 0 14 0H2ZM13.5303 5.03033C13.8232 4.73744 13.8232 4.26256 13.5303 3.96967C13.2374 3.67678 12.7626 3.67678 12.4697 3.96967L6.5 9.93934L4.03033 7.46967C3.73744 7.17678 3.26256 7.17678 2.96967 7.46967C2.67678 7.76256 2.67678 8.23744 2.96967 8.53033L5.96967 11.5303C6.26256 11.8232 6.73744 11.8232 7.03033 11.5303L13.5303 5.03033Z" fill="url(#paint0_linear)"/>
<defs>
<linearGradient id="paint0_linear" x1="8.03756" y1="1.57704e-07" x2="3.7865" y2="14.8677" gradientUnits="userSpaceOnUse">
<stop offset="0.0517137" stop-color="#82A5E6"/>
<stop offset="1" stop-color="#3A65A0"/>
</linearGradient>
</defs>
</svg>
