<svg width="26" height="26" viewBox="0 0 26 26" fill="none" xmlns="http://www.w3.org/2000/svg">
<g clip-path="url(#clip0)">
<path d="M25.5985 2.5827C25.2809 2.19431 24.8052 1.98047 24.2589 1.98047C23.962 1.98047 23.6474 2.04295 23.324 2.16653L1.31553 10.5679C0.147563 11.0136 -0.00974006 11.6825 0.0003765 12.0415C0.0104931 12.4005 0.205485 13.0595 1.39686 13.4386C1.404 13.4408 1.41114 13.4429 1.41828 13.4449L5.98344 14.7514L8.45228 21.8111C8.78891 22.7736 9.54447 23.3715 10.4244 23.3715C10.9792 23.3715 11.5249 23.139 12.0026 22.6994L14.8263 20.0995L18.9219 23.3973C18.9223 23.3977 18.9229 23.3979 18.9233 23.3983L18.9622 23.4296C18.9658 23.4324 18.9696 23.4353 18.9731 23.4381C19.4284 23.7912 19.9253 23.9777 20.4107 23.9779H20.4109C21.3592 23.9779 22.1144 23.2759 22.3344 22.1896L25.9405 4.38365C26.0853 3.66895 25.9639 3.02942 25.5985 2.5827ZM7.51065 14.5032L16.3182 10.0037L10.834 15.8311C10.7442 15.9265 10.6805 16.0433 10.6492 16.1705L9.59169 20.4539L7.51065 14.5032ZM10.9705 21.5787C10.934 21.6122 10.8973 21.6421 10.8606 21.6697L11.8417 17.6961L13.6264 19.1332L10.9705 21.5787ZM24.4474 4.08115L20.8413 21.8873C20.8066 22.0577 20.6957 22.4542 20.4107 22.4542C20.2698 22.4542 20.0929 22.3775 19.9118 22.238L15.2709 18.5012C15.2703 18.5006 15.2695 18.5 15.2687 18.4996L12.5072 16.276L20.438 7.84888C20.6919 7.5791 20.715 7.16591 20.4926 6.86955C20.27 6.5732 19.8668 6.47997 19.5369 6.64857L6.49284 13.3124L1.8656 11.9885L23.8674 3.5898C24.0532 3.51878 24.183 3.50391 24.2589 3.50391C24.3056 3.50391 24.3885 3.50946 24.4192 3.54735C24.4597 3.59674 24.5113 3.76515 24.4474 4.08115Z" fill="#C5C7CD"/>
</g>
<defs>
<clipPath id="clip0">
<rect width="26" height="26" fill="white"/>
</clipPath>
</defs>
</svg>
