<svg width="52" height="52" viewBox="0 0 52 52" fill="none" xmlns="http://www.w3.org/2000/svg">
<path d="M42.0175 29.949C43.0456 21.2948 41.5235 15.8312 38.7781 13.36L38.7795 13.3586C34.3483 9.13851 19.3834 8.51389 14.0821 13.5481C11.7013 16.0107 10.8628 19.6249 10.7709 24.0991C10.679 28.5748 10.5698 36.959 18.3826 39.2335H18.3897L18.3826 42.7069C18.3826 42.7069 18.3294 44.1141 19.2283 44.397C20.2564 44.7301 20.7216 44.0768 23.9194 40.2573C29.2667 40.7211 33.3733 39.6585 33.84 39.5034C34.9198 39.1416 41.0296 38.3332 42.0175 29.949ZM24.4464 37.8134C24.4464 37.8134 21.062 42.0335 20.0094 43.1291C19.6648 43.4852 19.2872 43.4522 19.2929 42.7457C19.2929 42.2819 19.3188 36.9791 19.3188 36.9791C12.695 35.0809 13.0855 27.9416 13.1573 24.2068C13.2291 20.4706 13.9126 17.4107 15.9286 15.3502C20.5795 10.9894 33.6993 11.9644 37.0421 15.1061C41.1286 18.7289 39.6741 28.9639 39.6827 29.3129C38.8427 36.3114 33.8917 36.7551 32.9813 37.0581C32.5922 37.1873 28.9809 38.1164 24.4464 37.8134Z" fill="white"/>
<path d="M26.3188 16.17C25.7659 16.17 25.7659 17.0316 26.3188 17.0388C30.6078 17.0718 34.1401 20.0613 34.1788 25.545C34.1788 26.1237 35.026 26.1165 35.0188 25.5378H35.0174C34.9715 19.6291 31.1146 16.2031 26.3188 16.17Z" fill="white"/>
<path d="M31.9604 24.6362C31.9475 25.2077 32.7932 25.2349 32.8004 24.6563C32.8708 21.3982 30.8619 18.7145 27.087 18.4317C26.5341 18.3914 26.4767 19.2602 27.0281 19.3004C30.3019 19.5488 32.0265 21.783 31.9604 24.6362Z" fill="white"/>
<path d="M31.0558 28.3421C30.3465 27.9315 29.6242 28.187 29.3256 28.5905L28.7009 29.3989C28.3836 29.8096 27.7906 29.755 27.7906 29.755C23.4628 28.6106 22.3054 24.0818 22.3054 24.0818C22.3054 24.0818 22.2523 23.4687 22.6486 23.1399L23.4298 22.4937C23.8203 22.1836 24.0673 21.4369 23.6695 20.7031C22.607 18.7834 21.8933 18.1214 21.5301 17.6131C21.1481 17.1349 20.5737 17.0272 19.9764 17.3503H19.9635C18.7214 18.0769 17.3616 19.4367 17.7967 20.8367C18.5391 22.3128 19.9032 27.0182 24.2511 30.5735C26.2944 32.2549 29.528 33.978 30.9007 34.3758L30.9137 34.3959C32.2663 34.8467 33.5816 33.4338 34.2837 32.1544V32.1444C34.5953 31.5255 34.4919 30.9397 34.0367 30.5563C33.2298 29.7694 32.0121 28.9007 31.0558 28.3421Z" fill="white"/>
<path d="M27.6786 21.6365C29.0585 21.7169 29.7276 22.4377 29.7994 23.9181C29.8252 24.4968 30.6652 24.4566 30.6394 23.8779C30.5475 21.9452 29.5395 20.8683 27.7245 20.7678C27.1717 20.7347 27.12 21.6035 27.6786 21.6365Z" fill="white"/>
</svg>
