<svg width="28" height="28" viewBox="0 0 28 28" fill="none" xmlns="http://www.w3.org/2000/svg">
<g clip-path="url(#clip0)">
<path d="M27.0142 16.2085C27.8495 9.17703 26.6129 4.73786 24.3822 2.73003L24.3834 2.72886C20.783 -0.699971 8.62403 -1.20747 4.3167 2.88286C2.38236 4.8837 1.70103 7.8202 1.62636 11.4555C1.5517 15.092 1.46303 21.9042 7.81086 23.7522H7.8167L7.81086 26.5744C7.81086 26.5744 7.7677 27.7177 8.49803 27.9475C9.33336 28.2182 9.71136 27.6874 12.3095 24.584C16.6542 24.9609 19.9909 24.0975 20.37 23.9715C21.2474 23.6775 26.2115 23.0207 27.0142 16.2085ZM12.7377 22.5984C12.7377 22.5984 9.98786 26.0272 9.1327 26.9174C8.8527 27.2067 8.54586 27.1799 8.55053 26.6059C8.55053 26.229 8.57153 21.9205 8.57153 21.9205C3.1897 20.3782 3.50703 14.5775 3.56536 11.543C3.6237 8.50736 4.17903 6.02119 5.81703 4.34703C9.59586 0.803862 20.2557 1.59603 22.9717 4.14869C26.292 7.0922 25.1102 15.4082 25.1172 15.6917C24.4347 21.378 20.412 21.7385 19.6724 21.9847C19.3562 22.0897 16.422 22.8445 12.7377 22.5984Z" fill="#C5C7CD"/>
<path d="M14.259 5.01318C13.8098 5.01318 13.8098 5.71318 14.259 5.71902C17.7438 5.74585 20.6138 8.17485 20.6453 12.6304C20.6453 13.1005 21.3337 13.0947 21.3278 12.6245H21.3267C21.2893 7.82368 18.1557 5.04002 14.259 5.01318Z" fill="#C5C7CD"/>
<path d="M18.8428 11.8918C18.8323 12.3562 19.5195 12.3783 19.5253 11.9082C19.5825 9.26101 17.9503 7.08051 14.8831 6.85068C14.434 6.81801 14.3873 7.52385 14.8353 7.55651C17.4953 7.75835 18.8965 9.57368 18.8428 11.8918Z" fill="#C5C7CD"/>
<path d="M18.1078 14.903C17.5315 14.5693 16.9447 14.777 16.702 15.1048L16.1945 15.7617C15.9367 16.0953 15.4549 16.051 15.4549 16.051C11.9385 15.1212 10.9982 11.4415 10.9982 11.4415C10.9982 11.4415 10.955 10.9433 11.277 10.6762L11.9117 10.1512C12.229 9.89916 12.4297 9.29249 12.1065 8.69632C11.2432 7.13649 10.6634 6.59866 10.3682 6.18566C10.0579 5.79716 9.59119 5.70966 9.10586 5.97216H9.09536C8.08619 6.56249 6.98136 7.66732 7.33486 8.80482C7.93802 10.0042 9.04636 13.8273 12.579 16.716C14.2392 18.0822 16.8665 19.4822 17.9818 19.8053L17.9923 19.8217C19.0913 20.188 20.16 19.04 20.7305 18.0005V17.9923C20.9837 17.4895 20.8997 17.0135 20.5298 16.702C19.8742 16.0627 18.8848 15.3568 18.1078 14.903Z" fill="#C5C7CD"/>
<path d="M15.3639 9.45466C16.4851 9.51999 17.0287 10.1057 17.0871 11.3085C17.1081 11.7787 17.7906 11.746 17.7696 11.2758C17.6949 9.70549 16.8759 8.83049 15.4012 8.74882C14.9521 8.72199 14.9101 9.42783 15.3639 9.45466Z" fill="#C5C7CD"/>
</g>
<defs>
<clipPath id="clip0">
<rect width="28" height="28" fill="white"/>
</clipPath>
</defs>
</svg>
