<svg width="28" height="26" viewBox="0 0 28 26" fill="none" xmlns="http://www.w3.org/2000/svg">
<path d="M1.33134 25.3075C0.831579 24.8286 0.83158 24.0521 1.33134 23.5732L24.8587 1.02605C25.3585 0.547114 26.1688 0.547115 26.6685 1.02605C27.1683 1.50499 27.1683 2.28151 26.6685 2.76045L3.14114 25.3075C2.64138 25.7865 1.8311 25.7865 1.33134 25.3075Z" fill="#C5C7CD"/>
<path d="M1.33146 1.02595C1.83122 0.547013 2.6415 0.547013 3.14126 1.02595L26.6687 23.5731C27.1684 24.052 27.1684 24.8285 26.6687 25.3074C26.1689 25.7864 25.3586 25.7864 24.8589 25.3074L1.33146 2.76034C0.831698 2.2814 0.831699 1.50489 1.33146 1.02595Z" fill="#C5C7CD"/>
</svg>
