<svg width="12" height="12" viewBox="0 0 12 12" fill="none" xmlns="http://www.w3.org/2000/svg">
<path d="M0.299041 11.0884C0.0741478 10.8728 0.0741479 10.5234 0.299041 10.3079L10.8864 0.161687C11.1113 -0.0538352 11.4759 -0.053835 11.7008 0.161688C11.9257 0.37721 11.9257 0.726641 11.7008 0.942164L1.11345 11.0884C0.888557 11.3039 0.523934 11.3039 0.299041 11.0884Z" fill="#C5C7CD"/>
<path d="M0.299094 0.161642C0.523988 -0.0538807 0.888611 -0.0538806 1.1135 0.161642L11.7008 10.3078C11.9257 10.5234 11.9257 10.8728 11.7008 11.0883C11.4759 11.3038 11.1113 11.3038 10.8864 11.0883L0.299094 0.942118C0.0742012 0.726596 0.0742014 0.377165 0.299094 0.161642Z" fill="#C5C7CD"/>
</svg>
