<svg width="14" height="13" viewBox="0 0 14 13" fill="none" xmlns="http://www.w3.org/2000/svg">
<path d="M0.665682 12.6537C0.415801 12.4143 0.415801 12.026 0.665682 11.7865L12.4294 0.512996C12.6793 0.273527 13.0844 0.273527 13.3343 0.512996C13.5842 0.752466 13.5842 1.14072 13.3343 1.38019L1.57058 12.6537C1.3207 12.8932 0.915563 12.8932 0.665682 12.6537Z" fill="#3F3F3F"/>
<path d="M0.665742 0.512946C0.915623 0.273476 1.32076 0.273476 1.57064 0.512946L13.3343 11.7865C13.5842 12.026 13.5842 12.4142 13.3343 12.6537C13.0845 12.8932 12.6793 12.8932 12.4294 12.6537L0.665742 1.38014C0.415861 1.14067 0.415861 0.752415 0.665742 0.512946Z" fill="#3F3F3F"/>
</svg>
